Coordinates
version=1
nRows=26
nColumns=24
inDegrees=yes

Units are S.I. units (second, meters, Newtons, ...)
Angles are in degrees.

endheader
time	pelvis_tilt	pelvis_list	pelvis_rotation	pelvis_tx	pelvis_ty	pelvis_tz	hip_flexion_r	hip_adduction_r	hip_rotation_r	knee_angle_r	ankle_angle_r	subtalar_angle_r	mtp_angle_r	hip_flexion_l	hip_adduction_l	hip_rotation_l	knee_angle_l	ankle_angle_l	subtalar_angle_l	mtp_angle_l	lumbar_extension	lumbar_bending	lumbar_rotation
      1.02466667	     -4.22046872	     -0.95325882	     -3.67269156	     -0.02158572	      0.88127644	      0.32552687	    -14.95867770	      4.52107660	      1.99134959	     -6.03444438	     17.56930493	      6.03162496	      8.10415340	     29.84459435	     -2.32157806	     -8.22823840	     -1.94907194	      2.72090224	     -3.40723797	      1.79689144	     -3.10594649	      1.89490242	      9.15773686
      1.02883333	     -4.19872916	     -0.86460074	     -3.72948269	     -0.01572736	      0.88014165	      0.32530600	    -15.17097121	      4.35961819	      2.06116703	     -6.48756986	     17.70557411	      6.05231622	      8.15695465	     29.99434226	     -2.22872002	     -7.88300208	     -2.54433636	      2.56790906	     -3.37466767	      1.80825616	     -3.13723413	      1.71990887	      9.20459587
      1.03300000	     -4.23585318	     -0.78870037	     -3.81052592	     -0.00989101	      0.87895831	      0.32508482	    -15.23862466	      4.20405777	      2.06096777	     -7.11022164	     17.94925664	      6.29884778	      8.31036428	     30.20653128	     -2.15770567	     -7.51990725	     -3.21559181	      2.42870791	     -3.40222221	      1.85284897	     -3.04325728	      1.54647982	      9.30158593
      1.03716667	     -4.25031101	     -0.66949082	     -3.86720082	     -0.00398710	      0.87786186	      0.32480487	    -15.34113489	      4.00157494	      2.03721966	     -7.70662396	     18.10675205	      6.54302304	      8.52124174	     30.39129659	     -2.02431770	     -7.18010663	     -3.94348168	      2.20158637	     -3.45554965	      1.92430227	     -3.02286367	      1.33369335	      9.36485485
      1.04133333	     -4.19967162	     -0.54545383	     -3.89553382	      0.00198360	      0.87691910	      0.32450982	    -15.55555898	      3.80376591	      2.07667598	     -8.21582398	     18.09775953	      6.55796983	      8.58520826	     30.51955051	     -1.87096718	     -6.90968327	     -4.75864156	      1.92939523	     -3.50366857	      1.94606984	     -3.07512963	      1.12024018	      9.38298310
      1.04550000	     -4.23902590	     -0.41411214	     -3.93194740	      0.00793322	      0.87587190	      0.32417477	    -15.56715058	      3.59135146	      1.97397655	     -8.94931389	     18.26177013	      6.87600347	      8.85413930	     30.73645920	     -1.70698610	     -6.56779226	     -5.60245728	      1.62645436	     -3.67805789	      2.05026178	     -2.97392170	      0.87654509	      9.39645344
      1.04966667	     -4.09973309	     -0.21724986	     -3.90687804	      0.01405802	      0.87514901	      0.32372866	    -15.83256198	      3.30135459	      1.74314088	     -9.55387275	     18.27071673	      7.24579430	     10.90989959	     30.71751679	     -1.42232484	     -6.21676508	     -6.39839600	      1.18777075	     -4.04483234	      2.91426861	     -3.10377433	      0.54381543	      9.40535948
      1.05383333	     -4.16541126	     -0.10398111	     -3.93339907	      0.02004106	      0.87419146	      0.32341792	    -15.81574750	      3.12786697	      1.79533691	    -10.27801253	     18.17591392	      7.20562349	     11.05235009	     31.00759754	     -1.28267623	     -6.03135988	     -7.41710539	      0.84444672	     -4.13358662	      2.97559348	     -2.98062714	      0.34260031	      9.36468879
      1.05800000	     -4.13718470	      0.05171849	     -3.91294382	      0.02612675	      0.87341024	      0.32298059	    -15.89879621	      2.89762575	      1.67003900	    -11.00965509	     18.13582709	      7.45534915	     11.44152370	     31.17512616	     -1.05617609	     -5.80685335	     -8.41981298	      0.43261732	     -4.41732892	      3.13610990	     -2.96252994	      0.08800032	      9.29994193
      1.06216667	     -4.08300010	      0.23497270	     -3.88019095	      0.03229015	      0.87274596	      0.32254401	    -16.00249377	      2.64462470	      1.55694261	    -11.74997047	     17.89854700	      7.45649978	     14.91544856	     31.27527971	     -0.78996939	     -5.56743925	     -9.36575986	     -0.04309151	     -4.75220786	      4.54712060	     -2.97516568	     -0.22353626	      9.26658823
      1.06633333	     -4.06491918	      0.39371010	     -3.82697239	      0.03844720	      0.87206950	      0.32207293	    -16.03889276	      2.42387474	      1.41732014	    -12.55197096	     17.69300125	      7.61083098	     14.98576254	     31.46530640	     -0.54949998	     -5.40542790	    -10.44358356	     -0.42190465	     -4.98135525	      4.57582147	     -2.93990562	     -0.49696654	      9.17818369
      1.07050000	     -3.99472913	      0.56564762	     -3.76537508	      0.04467161	      0.87154906	      0.32160662	    -16.12685778	      2.19381918	      1.28861323	    -13.36234129	     17.37609578	      7.60097707	     15.03497374	     31.58010369	     -0.29078832	     -5.28882874	    -11.50779351	     -0.78864092	     -5.19812900	      4.58678958	     -2.94712907	     -0.79217219	      9.13246922
      1.07466667	     -4.02737537	      0.75298872	     -3.69489922	      0.05088975	      0.87093548	      0.32107759	    -16.03888947	      1.94564556	      1.11607692	    -14.30041129	     17.09425086	      7.79468534	     15.19883720	     31.78867188	     -0.00338319	     -5.08106686	    -12.54345284	     -1.20588655	     -5.58246285	      4.61943146	     -2.84470649	     -1.10618486	      8.98757963
      1.07883333	     -3.97362080	      0.93680702	     -3.60285001	      0.05712794	      0.87050425	      0.32049587	    -16.02770072	      1.69604189	      0.89186939	    -15.27074916	     16.82745097	      7.99377960	     15.62855901	     31.90088280	      0.29985646	     -4.88384651	    -13.58580147	     -1.62668097	     -6.06354604	      4.69357715	     -2.85956638	     -1.39060182	      8.82921965
      1.08300000	     -3.90360924	      1.12071972	     -3.51337475	      0.06345926	      0.87019883	      0.31997979	    -16.03881112	      1.45848225	      0.73500794	    -16.21813171	     16.29104847	      7.93757188	     15.74680791	     31.99053787	      0.58019679	     -4.81848726	    -14.65555783	     -1.87427438	     -6.26290660	      4.70937261	     -2.85206089	     -1.70618271	      8.78246456
      1.08716667	     -3.90485372	      1.31662004	     -3.42406491	      0.06974779	      0.86986005	      0.31938877	    -15.90084767	      1.19456954	      0.53063721	    -17.28561079	     15.72628307	      8.03886804	     20.50377329	     32.12659280	      0.89353464	     -4.62673750	    -15.65748219	     -2.24737707	     -6.76443779	      5.27944808	     -2.79290325	     -2.02535858	      8.64341369
      1.09133333	     -3.88940962	      1.49329771	     -3.30724948	      0.07606036	      0.86958681	      0.31878727	    -15.75309171	      0.96133193	      0.31004229	    -18.42174890	     15.20222221	      8.12327000	     20.58354015	     32.26782893	      1.18066000	     -4.52717345	    -16.72999761	     -2.39921342	     -6.96993612	      5.28448669	     -2.74048016	     -2.31778431	      8.48096969
      1.09550000	     -3.87052460	      1.67951220	     -3.19700608	      0.08238524	      0.86940535	      0.31817295	    -15.56851250	      0.70929061	      0.08707838	    -19.62075685	     14.60653538	      8.21225508	     20.75505267	     32.37189763	      1.48152047	     -4.41325909	    -17.74578224	     -2.55063147	     -7.26174305	      5.28350312	     -2.69005239	     -2.61736119	      8.33395492
      1.09966667	     -3.79232182	      1.91927559	     -3.06246671	      0.08878316	      0.86940024	      0.31747910	    -15.42362430	      0.38279760	     -0.24656206	    -20.85489424	     13.92391117	      8.38845313	     22.17159233	     32.35515791	      1.86683759	     -4.24550087	    -18.65305296	     -2.70819690	     -7.67037526	      5.24234289	     -2.70698553	     -2.99902286	      8.14617451
      1.10383333	     -3.79339429	      2.08239116	     -2.97345296	      0.09510301	      0.86935024	      0.31692720	    -15.14150356	      0.15508101	     -0.37798389	    -22.16084497	     13.13049238	      8.34848387	     22.27444909	     32.45493314	      2.11751712	     -4.20484615	    -19.65267021	     -2.64103341	     -7.79005403	      5.23844831	     -2.62724139	     -3.28188770	      8.07721475
      1.10800000	     -3.72477082	      2.26210371	     -2.86275890	      0.10144405	      0.86946803	      0.31629898	    -14.89719751	     -0.10760441	     -0.61529449	    -23.52696319	     12.31192231	      8.33450830	     22.36000729	     32.44349723	      2.40412563	     -4.16295731	    -20.58193419	     -2.56550273	     -7.94097566	      5.23426831	     -2.62562020	     -3.54622838	      7.99450763
      1.11216667	     -3.73477756	      2.47429433	     -2.76897633	      0.10772688	      0.86954852	      0.31563225	    -14.48513913	     -0.42994135	     -0.87464860	    -25.02043706	     11.43710812	      8.48691014	     26.06445222	     32.46677453	      2.73329188	     -4.03861113	    -21.39886457	     -2.58795755	     -8.26281619	      4.89839400	     -2.55638203	     -3.87422567	      7.80538834
      1.11633333	     -3.68926067	      2.66256020	     -2.65207088	      0.11402684	      0.86975244	      0.31499614	    -14.12661868	     -0.71668886	     -1.12687124	    -26.51534035	     10.52354666	      8.54528196	     26.09446973	     32.43032674	      3.03394994	     -3.96054498	    -22.24639136	     -2.33354266	     -8.32073299	      4.89745359	     -2.54747551	     -4.19231017	      7.71715711
      1.12050000	     -3.66275282	      2.85840407	     -2.56040734	      0.12025393	      0.86999352	      0.31433947	    -13.67039122	     -1.04005140	     -1.40116803	    -28.12837724	      9.61282109	      8.66484820	     26.18851517	     32.37905032	      3.33180293	     -3.91593332	    -23.01158171	     -2.14206948	     -8.43060023	      4.88364981	     -2.51125229	     -4.46808405	      7.58996288
      1.12466667	     -3.56990374	      3.04928442	     -2.46624779	      0.12650055	      0.87041567	      0.31371084	    -13.28235989	     -1.35858323	     -1.65388422	    -29.71172565	      8.55503659	      8.66972947	     26.22466730	     32.22028355	      3.62583078	     -3.88775798	    -23.72446907	     -1.84963607	     -8.52601579	      4.88159617	     -2.56432261	     -4.76142384	      7.51417594
      1.12883333	     -3.57594651	      3.26316858	     -2.38982388	      0.13263152	      0.87072732	      0.31304579	    -12.69114324	     -1.73020696	     -1.92763238	    -31.45186411	      7.56584842	      8.82947894	     26.37102361	     32.13151486	      3.94201126	     -3.82466965	    -24.34313498	     -1.60800553	     -8.61066498	      4.85753872	     -2.49615674	     -5.07394261	      7.37587320
